<mxfile host="app.diagrams.net" modified="2023-01-26T19:12:46.071Z" agent="5.0 (Windows NT 10.0; Win64; x64) AppleWebKit/537.36 (KHTML, like Gecko) Chrome/109.0.0.0 Safari/537.36" etag="xQW55z_KrEGqtIW9BjlR" version="20.8.10" type="github">
  <diagram name="Page-1" id="GNT3Kv3KQ4bs04YL2XEw">
    <mxGraphModel dx="1050" dy="549" grid="1" gridSize="10" guides="1" tooltips="1" connect="1" arrows="1" fold="1" page="1" pageScale="1" pageWidth="827" pageHeight="1169" math="0" shadow="0">
      <root>
        <mxCell id="0" />
        <mxCell id="1" parent="0" />
        <mxCell id="dVCvA-LvSgLrH5dOhElO-61" style="edgeStyle=none;rounded=0;orthogonalLoop=1;jettySize=auto;html=1;entryX=0;entryY=0;entryDx=0;entryDy=0;fontSize=12;endArrow=none;endFill=0;exitX=0.5;exitY=0.5;exitDx=0;exitDy=0;exitPerimeter=0;" edge="1" parent="1" source="dVCvA-LvSgLrH5dOhElO-80">
          <mxGeometry relative="1" as="geometry">
            <mxPoint x="210" y="826.7308522445958" as="sourcePoint" />
            <mxPoint x="370.5025253169417" y="845.2512626584709" as="targetPoint" />
          </mxGeometry>
        </mxCell>
        <mxCell id="dVCvA-LvSgLrH5dOhElO-26" style="rounded=0;orthogonalLoop=1;jettySize=auto;html=1;entryX=0;entryY=0.5;entryDx=0;entryDy=0;fontSize=12;endArrow=none;endFill=0;" edge="1" parent="1" source="dVCvA-LvSgLrH5dOhElO-3" target="dVCvA-LvSgLrH5dOhElO-13">
          <mxGeometry relative="1" as="geometry" />
        </mxCell>
        <mxCell id="dVCvA-LvSgLrH5dOhElO-27" style="rounded=0;orthogonalLoop=1;jettySize=auto;html=1;entryX=0;entryY=0.5;entryDx=0;entryDy=0;fontSize=12;endArrow=none;endFill=0;elbow=vertical;" edge="1" parent="1" source="dVCvA-LvSgLrH5dOhElO-3" target="dVCvA-LvSgLrH5dOhElO-14">
          <mxGeometry relative="1" as="geometry" />
        </mxCell>
        <mxCell id="dVCvA-LvSgLrH5dOhElO-28" style="rounded=0;orthogonalLoop=1;jettySize=auto;html=1;entryX=0;entryY=0.5;entryDx=0;entryDy=0;fontSize=12;endArrow=none;endFill=0;elbow=vertical;" edge="1" parent="1" source="dVCvA-LvSgLrH5dOhElO-3" target="dVCvA-LvSgLrH5dOhElO-15">
          <mxGeometry relative="1" as="geometry" />
        </mxCell>
        <mxCell id="dVCvA-LvSgLrH5dOhElO-29" style="rounded=0;orthogonalLoop=1;jettySize=auto;html=1;entryX=0;entryY=0.5;entryDx=0;entryDy=0;fontSize=12;endArrow=none;endFill=0;" edge="1" parent="1" source="dVCvA-LvSgLrH5dOhElO-3" target="dVCvA-LvSgLrH5dOhElO-18">
          <mxGeometry relative="1" as="geometry" />
        </mxCell>
        <mxCell id="dVCvA-LvSgLrH5dOhElO-30" style="rounded=0;orthogonalLoop=1;jettySize=auto;html=1;entryX=0;entryY=0;entryDx=0;entryDy=0;fontSize=12;endArrow=none;endFill=0;" edge="1" parent="1" source="dVCvA-LvSgLrH5dOhElO-3" target="dVCvA-LvSgLrH5dOhElO-16">
          <mxGeometry relative="1" as="geometry" />
        </mxCell>
        <mxCell id="dVCvA-LvSgLrH5dOhElO-31" style="rounded=0;orthogonalLoop=1;jettySize=auto;html=1;entryX=0.103;entryY=0.191;entryDx=0;entryDy=0;entryPerimeter=0;fontSize=12;endArrow=none;endFill=0;" edge="1" parent="1" source="dVCvA-LvSgLrH5dOhElO-3" target="dVCvA-LvSgLrH5dOhElO-19">
          <mxGeometry relative="1" as="geometry" />
        </mxCell>
        <mxCell id="dVCvA-LvSgLrH5dOhElO-32" style="rounded=0;orthogonalLoop=1;jettySize=auto;html=1;entryX=0;entryY=0.5;entryDx=0;entryDy=0;fontSize=12;endArrow=none;endFill=0;" edge="1" parent="1" source="dVCvA-LvSgLrH5dOhElO-3" target="dVCvA-LvSgLrH5dOhElO-17">
          <mxGeometry relative="1" as="geometry" />
        </mxCell>
        <mxCell id="dVCvA-LvSgLrH5dOhElO-34" style="rounded=0;orthogonalLoop=1;jettySize=auto;html=1;entryX=0;entryY=0.5;entryDx=0;entryDy=0;fontSize=12;endArrow=none;endFill=0;" edge="1" parent="1" source="dVCvA-LvSgLrH5dOhElO-3" target="dVCvA-LvSgLrH5dOhElO-20">
          <mxGeometry relative="1" as="geometry" />
        </mxCell>
        <mxCell id="dVCvA-LvSgLrH5dOhElO-84" style="rounded=0;orthogonalLoop=1;jettySize=auto;html=1;entryX=0;entryY=0;entryDx=0;entryDy=0;fontSize=12;startArrow=none;startFill=0;endArrow=none;endFill=0;elbow=vertical;" edge="1" parent="1" source="dVCvA-LvSgLrH5dOhElO-3" target="dVCvA-LvSgLrH5dOhElO-83">
          <mxGeometry relative="1" as="geometry" />
        </mxCell>
        <mxCell id="dVCvA-LvSgLrH5dOhElO-3" value="Habitant" style="shape=umlActor;verticalLabelPosition=bottom;verticalAlign=top;html=1;" vertex="1" parent="1">
          <mxGeometry x="70" y="360" width="30" height="60" as="geometry" />
        </mxCell>
        <mxCell id="dVCvA-LvSgLrH5dOhElO-11" value="&lt;div class=&quot;O0&quot;&gt;&lt;span style=&quot;&quot;&gt;Valider les comptes&lt;/span&gt;&lt;/div&gt;" style="ellipse;whiteSpace=wrap;html=1;" vertex="1" parent="1">
          <mxGeometry x="260" y="740" width="140" height="70" as="geometry" />
        </mxCell>
        <mxCell id="dVCvA-LvSgLrH5dOhElO-13" value="Publier une annonce" style="ellipse;whiteSpace=wrap;html=1;" vertex="1" parent="1">
          <mxGeometry x="520" y="180" width="140" height="70" as="geometry" />
        </mxCell>
        <mxCell id="dVCvA-LvSgLrH5dOhElO-14" value="Créer un évenement" style="ellipse;whiteSpace=wrap;html=1;" vertex="1" parent="1">
          <mxGeometry x="530" y="320" width="140" height="70" as="geometry" />
        </mxCell>
        <mxCell id="dVCvA-LvSgLrH5dOhElO-15" value="Créer une alerte&amp;nbsp;" style="ellipse;whiteSpace=wrap;html=1;" vertex="1" parent="1">
          <mxGeometry x="310" y="410" width="140" height="70" as="geometry" />
        </mxCell>
        <mxCell id="dVCvA-LvSgLrH5dOhElO-16" value="Publier des demandes&amp;nbsp;" style="ellipse;whiteSpace=wrap;html=1;" vertex="1" parent="1">
          <mxGeometry x="460" y="400" width="140" height="70" as="geometry" />
        </mxCell>
        <mxCell id="dVCvA-LvSgLrH5dOhElO-17" value="Demander des avis&amp;nbsp;" style="ellipse;whiteSpace=wrap;html=1;" vertex="1" parent="1">
          <mxGeometry x="230" y="530" width="140" height="70" as="geometry" />
        </mxCell>
        <mxCell id="dVCvA-LvSgLrH5dOhElO-18" value="Rechercher des informations&amp;nbsp;" style="ellipse;whiteSpace=wrap;html=1;" vertex="1" parent="1">
          <mxGeometry x="414" y="270" width="140" height="70" as="geometry" />
        </mxCell>
        <mxCell id="dVCvA-LvSgLrH5dOhElO-19" value="Proposer des services" style="ellipse;whiteSpace=wrap;html=1;" vertex="1" parent="1">
          <mxGeometry x="414" y="515" width="140" height="70" as="geometry" />
        </mxCell>
        <mxCell id="dVCvA-LvSgLrH5dOhElO-20" value="Répondre à un service" style="ellipse;whiteSpace=wrap;html=1;" vertex="1" parent="1">
          <mxGeometry x="250" y="620" width="140" height="70" as="geometry" />
        </mxCell>
        <mxCell id="dVCvA-LvSgLrH5dOhElO-79" style="edgeStyle=none;rounded=0;orthogonalLoop=1;jettySize=auto;html=1;entryX=0;entryY=0.5;entryDx=0;entryDy=0;fontSize=12;endArrow=none;endFill=0;" edge="1" source="dVCvA-LvSgLrH5dOhElO-80" parent="1" target="dVCvA-LvSgLrH5dOhElO-11">
          <mxGeometry relative="1" as="geometry">
            <mxPoint x="350" y="785" as="targetPoint" />
          </mxGeometry>
        </mxCell>
        <mxCell id="dVCvA-LvSgLrH5dOhElO-87" style="edgeStyle=none;rounded=0;orthogonalLoop=1;jettySize=auto;html=1;fontSize=12;startArrow=none;startFill=0;endArrow=classic;endFill=1;elbow=vertical;" edge="1" parent="1">
          <mxGeometry relative="1" as="geometry">
            <mxPoint x="85" y="450" as="targetPoint" />
            <mxPoint x="85" y="750" as="sourcePoint" />
          </mxGeometry>
        </mxCell>
        <mxCell id="dVCvA-LvSgLrH5dOhElO-80" value="gestionaire" style="shape=umlActor;verticalLabelPosition=bottom;verticalAlign=top;html=1;outlineConnect=0;" vertex="1" parent="1">
          <mxGeometry x="70" y="775" width="30" height="60" as="geometry" />
        </mxCell>
        <mxCell id="dVCvA-LvSgLrH5dOhElO-81" value="Bannissement des comptes inappropriés" style="ellipse;whiteSpace=wrap;html=1;" vertex="1" parent="1">
          <mxGeometry x="360" y="810" width="140" height="70" as="geometry" />
        </mxCell>
        <mxCell id="dVCvA-LvSgLrH5dOhElO-83" value="créer des clubs" style="ellipse;whiteSpace=wrap;html=1;" vertex="1" parent="1">
          <mxGeometry x="430" y="600" width="140" height="70" as="geometry" />
        </mxCell>
        <mxCell id="dVCvA-LvSgLrH5dOhElO-86" style="edgeStyle=none;rounded=0;orthogonalLoop=1;jettySize=auto;html=1;fontSize=12;startArrow=none;startFill=0;endArrow=none;endFill=0;elbow=vertical;" edge="1" parent="1" source="dVCvA-LvSgLrH5dOhElO-85" target="dVCvA-LvSgLrH5dOhElO-80">
          <mxGeometry relative="1" as="geometry" />
        </mxCell>
        <mxCell id="dVCvA-LvSgLrH5dOhElO-85" value="Suppression des comptes inappropriés" style="ellipse;whiteSpace=wrap;html=1;" vertex="1" parent="1">
          <mxGeometry x="250" y="880" width="140" height="70" as="geometry" />
        </mxCell>
        <mxCell id="dVCvA-LvSgLrH5dOhElO-90" value="" style="rounded=0;whiteSpace=wrap;html=1;fontSize=12;gradientColor=none;opacity=30;fillColor=#000000;strokeWidth=7;shadow=0;" vertex="1" parent="1">
          <mxGeometry x="197" y="90" width="630" height="860" as="geometry" />
        </mxCell>
      </root>
    </mxGraphModel>
  </diagram>
</mxfile>
